<svg xmlns="http://www.w3.org/2000/svg" xmlns:xlink="http://www.w3.org/1999/xlink" viewBox="0,0,256,256" width="150px" height="150px"><g fill="#ffffff" fill-rule="nonzero" stroke="none" stroke-width="1" stroke-linecap="butt" stroke-linejoin="miter" stroke-miterlimit="10" stroke-dasharray="" stroke-dashoffset="0" font-family="none" font-weight="none" font-size="none" text-anchor="none" style="mix-blend-mode: normal"><g transform="scale(5.12,5.12)"><path d="M14,8c-5.51172,0 -10,4.48828 -10,10c0,1.02734 0.26563,1.98047 0.55469,2.91016c-2.13672,1.64453 -3.55469,4.1875 -3.55469,7.08984c0,4.95703 4.04297,9 9,9c0.33984,0 0.66406,-0.05859 0.99219,-0.09766c1.46484,2.99219 4.46094,5.09766 8.00781,5.09766c3.35547,0 6.21875,-1.89062 7.76563,-4.62109c0.875,0.30859 1.75391,0.62109 2.73438,0.62109c3.06641,0 5.70313,-1.67578 7.19922,-4.12109c0.42578,0.05469 0.85156,0.12109 1.30078,0.12109c6.0625,0 11,-4.9375 11,-11c0,-6.0625 -4.9375,-11 -11,-11c-1.25781,0 -2.41797,0.34375 -3.54687,0.73438c-1.53125,-2.23047 -4.05078,-3.73437 -6.95312,-3.73437c-2.34375,0 -4.34375,1.09766 -5.87891,2.64063c-1.83594,-2.19531 -4.54297,-3.64062 -7.62109,-3.64062zM14,10c2.78906,0 5.22656,1.41797 6.66016,3.57422l0.78906,1.17969l0.84766,-1.13281c1.1875,-1.58984 3.06641,-2.62109 5.20313,-2.62109c2.4375,0 4.54688,1.33594 5.66016,3.3125l0.44531,0.78516l0.82422,-0.35937c1.09766,-0.47266 2.30078,-0.73828 3.57031,-0.73828c4.98438,0 9,4.01563 9,9c0,4.98438 -4.01562,9 -9,9c-0.54297,0 -1.07812,-0.05469 -1.60937,-0.15234l-0.73828,-0.13281l-0.33594,0.67188c-1.06641,2.14063 -3.25781,3.61328 -5.81641,3.61328c-0.99219,0 -1.92969,-0.23047 -2.77734,-0.62891l-0.92187,-0.4375l-0.41797,0.92969c-1.09375,2.4375 -3.53125,4.13672 -6.38281,4.13672c-2.99609,0 -5.52734,-1.875 -6.53125,-4.50391l-0.30078,-0.78906l-0.82422,0.16406c-0.44141,0.08203 -0.88672,0.12891 -1.34375,0.12891c-3.87891,0 -7,-3.12109 -7,-7c0,-2.46094 1.26563,-4.60937 3.17969,-5.85937l0.68359,-0.44922l-0.30078,-0.75391c-0.35937,-0.91797 -0.5625,-1.90234 -0.5625,-2.9375c0,-4.42969 3.57031,-8 8,-8zM16.11328,20c-0.04297,0 -0.07422,0.03516 -0.07422,0.08203v5.83594c0,0.04688 0.03125,0.08203 0.07422,0.08203h0.71094c0.04297,0 0.07422,-0.03516 0.07422,-0.08203v-5.83594c0,-0.04687 -0.03125,-0.08203 -0.07422,-0.08203zM28.57813,20.01563c-0.48437,0 -0.86328,0.13672 -1.12891,0.40625c-0.26562,0.26563 -0.44531,0.67578 -0.53906,1.20703l-0.05078,0.36719h-0.60156c0,0 -0.07422,-0.00391 -0.08984,0.07813l-0.10156,0.55469c-0.00391,0.05469 0.01953,0.08594 0.08984,0.08594h0.58984l-0.59766,3.33594c-0.04687,0.26953 -0.10156,0.48828 -0.16016,0.65625c-0.05859,0.16797 -0.11719,0.28906 -0.1875,0.38281c-0.06641,0.08594 -0.13281,0.14844 -0.24219,0.1875c-0.09375,0.03125 -0.19922,0.04688 -0.3125,0.04688c-0.06641,0 -0.15234,-0.01172 -0.21484,-0.02734c-0.06641,-0.01172 -0.09766,-0.02344 -0.14453,-0.04687c0,0 -0.07031,-0.02344 -0.09766,0.04688c-0.02344,0.05469 -0.17969,0.48828 -0.19531,0.54297c-0.01953,0.05078 0.00391,0.08984 0.03906,0.10156c0.07813,0.03125 0.13672,0.04688 0.24219,0.07422c0.15234,0.03125 0.27734,0.03516 0.39063,0.03516c0.24609,0 0.47266,-0.03516 0.65625,-0.10156c0.1875,-0.06641 0.34766,-0.18359 0.49219,-0.33984c0.15625,-0.17578 0.25391,-0.35547 0.34766,-0.59766c0.08984,-0.24609 0.16797,-0.54687 0.23438,-0.89844l0.59766,-3.39844h0.87891c0,0 0.07422,0.00391 0.08984,-0.07812l0.09766,-0.55469c0.00781,-0.05469 -0.01562,-0.08594 -0.08594,-0.08594h-0.85547c0.00781,-0.01953 0.0625,-0.50391 0.16016,-0.78516c0.04297,-0.12109 0.12109,-0.21875 0.1875,-0.28516c0.06641,-0.06641 0.14063,-0.11328 0.22266,-0.14062c0.08594,-0.02734 0.17969,-0.03906 0.28516,-0.03906c0.07813,0 0.16016,0.00781 0.22266,0.01953c0.07813,0.01953 0.11328,0.02734 0.13672,0.03516c0.08594,0.02734 0.09375,0 0.11328,-0.03906l0.20313,-0.5625c0.02344,-0.05859 -0.02734,-0.08594 -0.04687,-0.09375c-0.08594,-0.02734 -0.16016,-0.04297 -0.26562,-0.05859c-0.10156,-0.01953 -0.22266,-0.03125 -0.35937,-0.03125zM9.55859,22h-0.09375c-0.86328,0 -1.46875,0.48438 -1.46875,1.17188v0.01563c0,0.72266 0.66406,0.96094 1.28906,1.125l0.10156,0.02734c0.45313,0.12891 0.84766,0.23828 0.84766,0.53516v0.01563c0,0.26563 -0.25781,0.46875 -0.66797,0.46875c-0.16016,0 -0.66406,-0.00391 -1.21484,-0.32422c-0.06641,-0.03516 -0.10547,-0.0625 -0.15625,-0.08984c-0.02734,-0.01562 -0.09375,-0.04297 -0.125,0.03906l-0.1875,0.48047c-0.02734,0.06641 0.01172,0.08203 0.02344,0.09375c0.08594,0.05859 0.17188,0.09766 0.26172,0.14453c0.46875,0.23047 0.91016,0.29688 1.375,0.29688c0.94531,0 1.53125,-0.46094 1.53125,-1.20703v-0.01172c0,-0.69141 -0.66406,-0.94141 -1.28516,-1.125l-0.07812,-0.01953c-0.46875,-0.14062 -0.87109,-0.26172 -0.87109,-0.54687v-0.01172c0,-0.24609 0.23438,-0.42187 0.60156,-0.42187c0.40625,0 0.88672,0.125 1.19922,0.28125c0,0 0.09375,0.05469 0.125,-0.02734c0.01953,-0.04297 0.17578,-0.43359 0.19141,-0.47656c0.01953,-0.04687 -0.01562,-0.07812 -0.04687,-0.09766c-0.35547,-0.19922 -0.84375,-0.33594 -1.35156,-0.33594zM13.57031,22c-0.19922,0 -0.51953,0.02344 -0.71484,0.0625c0,0 -0.58203,0.10156 -0.82422,0.27734c0,0 -0.05078,0.03125 -0.01953,0.09766l0.1875,0.46875c0.02344,0.0625 0.08594,0.04297 0.08594,0.04297c0,0 0.01953,-0.00781 0.04297,-0.02344c0.51563,-0.25781 1.16406,-0.25 1.16406,-0.25c0.28906,0 0.50781,0.05469 0.66016,0.16016c0.14453,0.10547 0.21875,0.26172 0.21875,0.58984v0.10547c-0.23047,-0.03125 -0.44141,-0.04687 -0.44141,-0.04687c-0.10937,-0.00781 -0.24609,-0.01562 -0.41406,-0.01562c-0.23047,0 -0.45312,0.02734 -0.65625,0.07813c-0.21094,0.05469 -0.39844,0.13281 -0.55859,0.23828c-0.16016,0.10938 -0.29297,0.24609 -0.38672,0.41016c-0.09375,0.16406 -0.14453,0.35547 -0.14453,0.57031c0,0.21875 0.04297,0.40625 0.12109,0.5625c0.08203,0.15625 0.19922,0.28906 0.34766,0.39063c0.14844,0.09766 0.33203,0.17188 0.54297,0.21484c0.21484,0.04297 0.44922,0.06641 0.70703,0.06641c0.27734,0 0.54688,-0.01953 0.8125,-0.0625c0.26172,-0.03906 0.58203,-0.10156 0.67188,-0.12109c0.08984,-0.01953 0.18359,-0.04687 0.18359,-0.04687c0.06641,-0.01562 0.0625,-0.07812 0.0625,-0.07812v-2.25781c0,-0.49609 -0.14062,-0.86328 -0.42187,-1.08984c-0.28125,-0.22656 -0.69531,-0.34375 -1.22656,-0.34375zM19.84375,22c-0.33203,0 -0.63672,0.05078 -0.87891,0.15625c-0.24609,0.10938 -0.45703,0.25391 -0.61719,0.4375c-0.16016,0.17969 -0.28516,0.39844 -0.36328,0.64063c-0.07422,0.24609 -0.11328,0.51172 -0.11328,0.79297c0,0.28125 0.03906,0.54688 0.11719,0.78516c0.08203,0.24219 0.21484,0.45313 0.38672,0.62891c0.17969,0.17969 0.40234,0.31641 0.67188,0.41406c0.26953,0.09766 0.59375,0.14844 0.96875,0.14453c0.76953,0 1.17578,-0.16016 1.34375,-0.24609c0.03125,-0.01562 0.05859,-0.04297 0.02344,-0.11719l-0.17578,-0.45312c-0.02734,-0.07031 -0.09766,-0.04297 -0.09766,-0.04297c-0.19141,0.0625 -0.46484,0.18359 -1.09766,0.18359c-0.41406,-0.00391 -0.71875,-0.11328 -0.91406,-0.29297c-0.19531,-0.17969 -0.29297,-0.44922 -0.30859,-0.82422l2.66406,0.00391c0,0 0.07031,0 0.07813,-0.06641c0.00391,-0.02344 0.09375,-0.50781 -0.07812,-1.06641c-0.06641,-0.23437 -0.23437,-0.46875 -0.34375,-0.57812c-0.17187,-0.17187 -0.33594,-0.28906 -0.50391,-0.35547c-0.21875,-0.08594 -0.47656,-0.14453 -0.76172,-0.14453zM23.92188,22h-0.09375c-0.86719,0 -1.46875,0.48438 -1.46875,1.17188v0.01563c0,0.72266 0.66797,0.96094 1.28906,1.125l0.10156,0.02734c0.45313,0.12891 0.84375,0.23828 0.84375,0.53516v0.01563c0,0.26563 -0.25391,0.46875 -0.66406,0.46875c-0.16016,0 -0.66797,-0.00391 -1.21484,-0.32422c-0.06641,-0.03516 -0.10547,-0.05859 -0.15625,-0.08984c-0.01562,-0.01172 -0.09766,-0.03906 -0.125,0.03906l-0.1875,0.48047c-0.02734,0.06641 0.01172,0.08203 0.01953,0.09375c0.08984,0.05859 0.17578,0.09766 0.26563,0.14453c0.46875,0.23047 0.91016,0.29688 1.375,0.29688c0.94141,0 1.53125,-0.46094 1.53125,-1.20703v-0.01172c0,-0.69141 -0.66406,-0.94141 -1.28516,-1.125l-0.07812,-0.01953c-0.46875,-0.14062 -0.87109,-0.26172 -0.87109,-0.54687v-0.01172c0,-0.24609 0.23438,-0.42187 0.59766,-0.42187c0.40625,0 0.89063,0.125 1.19922,0.28125c0,0 0.09375,0.05469 0.125,-0.02734c0.01953,-0.04297 0.17578,-0.43359 0.19141,-0.47656c0.01953,-0.04687 -0.01172,-0.07812 -0.04297,-0.09766c-0.35547,-0.19922 -0.84766,-0.33594 -1.35156,-0.33594zM30.65625,22c-0.31641,0 -0.60156,0.05078 -0.84375,0.15625c-0.24219,0.10547 -0.44531,0.25 -0.60547,0.42578c-0.16016,0.17969 -0.27734,0.39453 -0.35547,0.63672c-0.07812,0.24219 -0.11719,0.50391 -0.11719,0.78516c0,0.28125 0.03906,0.54297 0.11719,0.78125c0.07813,0.24219 0.19531,0.46094 0.35547,0.63672c0.16016,0.17969 0.36719,0.32422 0.60547,0.42188c0.24219,0.10156 0.52734,0.15625 0.84375,0.15625c0.32031,0 0.60547,-0.05078 0.84375,-0.15234c0.24219,-0.10156 0.44531,-0.24609 0.60938,-0.42578c0.15625,-0.17578 0.27734,-0.39062 0.35547,-0.63281c0.07813,-0.24219 0.11328,-0.50391 0.11328,-0.78516c0,-0.28125 -0.03516,-0.54297 -0.11328,-0.78516c-0.07812,-0.24219 -0.19922,-0.45703 -0.35547,-0.63672c-0.16016,-0.17578 -0.36719,-0.32031 -0.60937,-0.42578c-0.23828,-0.10156 -0.52344,-0.15625 -0.84375,-0.15625zM37.92188,22c-0.32812,0 -0.62109,0.05078 -0.875,0.15625c-0.25391,0.10156 -0.46484,0.24609 -0.63672,0.42578c-0.16797,0.17969 -0.29687,0.39453 -0.38281,0.63672c-0.08594,0.23828 -0.125,0.50391 -0.125,0.78516c0,0.60547 0.17188,1.09375 0.51953,1.45313c0.35156,0.35938 0.875,0.54297 1.55859,0.54297c0.40234,0 0.81641,-0.07422 1.11328,-0.18359c0,0 0.05859,-0.02734 0.03125,-0.08594l-0.19141,-0.49609c-0.02734,-0.07422 -0.10156,-0.04687 -0.10156,-0.04687c-0.11328,0.04297 -0.23437,0.07813 -0.36328,0.09766c-0.13281,0.01953 -0.27734,0.02734 -0.43359,0.02734c-0.38281,0 -0.68359,-0.10156 -0.89844,-0.3125c-0.21875,-0.20703 -0.33984,-0.54297 -0.33984,-0.99609c0,-0.41406 0.10938,-0.72656 0.30078,-0.96094c0.19141,-0.23828 0.48438,-0.35937 0.875,-0.35937c0.32422,0 0.57422,0.03516 0.83203,0.11328c0,0 0.0625,0.02344 0.08984,-0.05078c0.07031,-0.17969 0.12109,-0.30859 0.19531,-0.5c0.01953,-0.05859 -0.03125,-0.08203 -0.05078,-0.08984c-0.10156,-0.03516 -0.33984,-0.09375 -0.52344,-0.12109c-0.17187,-0.02344 -0.37109,-0.03516 -0.59375,-0.03516zM41.35156,22c-0.33203,0 -0.63281,0.05078 -0.87891,0.15625c-0.24609,0.10938 -0.45312,0.25391 -0.61328,0.4375c-0.16406,0.17969 -0.28516,0.39844 -0.36328,0.64063c-0.07812,0.24609 -0.11719,0.51172 -0.11719,0.79297c0,0.28125 0.04297,0.54688 0.12109,0.78516c0.08203,0.24219 0.21094,0.45313 0.38672,0.62891c0.17578,0.17969 0.40234,0.31641 0.67188,0.41406c0.26953,0.09766 0.59375,0.14844 0.96875,0.14453c0.76953,0 1.17578,-0.16016 1.34375,-0.24609c0.02734,-0.01562 0.05469,-0.04297 0.01953,-0.11719l-0.17187,-0.45312c-0.02734,-0.07031 -0.10156,-0.04297 -0.10156,-0.04297c-0.19141,0.0625 -0.46094,0.18359 -1.09766,0.18359c-0.41016,-0.00391 -0.71875,-0.11328 -0.91016,-0.29297c-0.19531,-0.17969 -0.29297,-0.44922 -0.30859,-0.82422l2.66797,0.00391c0,0 0.06641,0 0.07813,-0.06641c0,-0.02344 0.08594,-0.50781 -0.08203,-1.06641c-0.07031,-0.23437 -0.23437,-0.46875 -0.34375,-0.57812c-0.17187,-0.17187 -0.33984,-0.28906 -0.50781,-0.35547c-0.21484,-0.08594 -0.47656,-0.14453 -0.76172,-0.14453zM35.27344,22.00391c-0.33594,-0.01953 -0.51953,0.03516 -0.6875,0.10547c-0.16406,0.07031 -0.35156,0.1875 -0.44922,0.31641v-0.30859c0,-0.04297 -0.03516,-0.07812 -0.07812,-0.07812h-0.68359c-0.04687,0 -0.07812,0.03516 -0.07812,0.07813v3.80469c0,0.04688 0.03516,0.07813 0.08203,0.07813h0.69922c0.04688,0 0.07813,-0.03125 0.07813,-0.07812v-1.90234c0,-0.25391 0.03125,-0.50781 0.09375,-0.66797c0.05469,-0.15625 0.13281,-0.28516 0.23047,-0.375c0.09766,-0.08984 0.20703,-0.15234 0.33203,-0.19141c0.12109,-0.03516 0.25781,-0.04687 0.35547,-0.04687c0.14063,0 0.29297,0.03516 0.29297,0.03516c0.05078,0.00391 0.07813,-0.02734 0.09766,-0.07031c0.04688,-0.11719 0.17578,-0.46484 0.20313,-0.53125c0.01953,-0.05859 -0.02344,-0.08984 -0.04297,-0.09375c-0.04297,-0.01953 -0.26953,-0.0625 -0.44531,-0.07422zM19.78125,22.65625c0.34766,0 0.57813,0.125 0.74609,0.35938c0.10938,0.15234 0.15625,0.35547 0.17578,0.58203h-1.90234c0.03906,-0.23437 0.10938,-0.43359 0.21484,-0.58203c0.16406,-0.23437 0.41406,-0.35937 0.76563,-0.35937zM41.28906,22.65625c0.35156,0 0.58203,0.125 0.74609,0.35938c0.10938,0.15234 0.16016,0.35547 0.17969,0.58203h-1.90234c0.03516,-0.23437 0.10547,-0.43359 0.21484,-0.58203c0.16406,-0.23437 0.41016,-0.35937 0.76172,-0.35937zM30.65625,22.67188c0.35156,0 0.60156,0.10938 0.76953,0.34375c0.16797,0.23047 0.25,0.56641 0.25,0.98828c0,0.42188 -0.08203,0.75781 -0.25391,0.99219c-0.16406,0.23438 -0.41406,0.34766 -0.76562,0.34766c-0.35156,0 -0.59766,-0.11328 -0.76172,-0.34766c-0.16406,-0.23437 -0.25,-0.57031 -0.25,-0.99219c0,-0.42187 0.08594,-0.75781 0.25,-0.98828c0.16406,-0.23437 0.41406,-0.34375 0.76172,-0.34375zM13.64453,24.09375c0.38281,0.00391 0.72656,0.05859 0.72656,0.05859v1.12109c0,0 -0.33984,0.06641 -0.71875,0.08594c-0.54297,0.03125 -0.78516,-0.14062 -0.78125,-0.14062c-0.10547,-0.07812 -0.12109,-0.09766 -0.15234,-0.14844c-0.05469,-0.07422 -0.08203,-0.18359 -0.08203,-0.32031c0,-0.21875 0.07813,-0.375 0.23828,-0.48047c-0.00391,0 0.22656,-0.18359 0.76953,-0.17578z"></path></g></g></svg>